<?xml version="1.0" encoding="utf-8"?>
<!-- Generator: Adobe Illustrator 18.0.0, SVG Export Plug-In . SVG Version: 6.00 Build 0)  -->
<!DOCTYPE svg PUBLIC "-//W3C//DTD SVG 1.1//EN" "http://www.w3.org/Graphics/SVG/1.1/DTD/svg11.dtd">
<svg version="1.1" id="Layer_1" xmlns="http://www.w3.org/2000/svg" xmlns:xlink="http://www.w3.org/1999/xlink" x="0px" y="0px"
	 viewBox="0 0 48 48" enable-background="new 0 0 48 48" xml:space="preserve">
<g opacity="0.7">
	<circle fill="#34363B" cx="27" cy="24.7" r="2"/>
	<circle fill="#34363B" cx="19" cy="24.7" r="2"/>
	<path fill="#34363B" d="M33,20.7h-0.2c0-7-4.7-10-9.8-10c-5.6,0-10.7,3.5-9.8,11.7c-0.7,0.7-1.2,1.8-1.2,3.1c0,1.9,1.8,3.5,3.2,4
		c0.5,1.5,1.4,2.8,2.7,3.9c0.2,0.2,0.4,0.2,0.6,0.2c0.3,0,0.6-0.1,0.8-0.4c0.4-0.4,0.3-1.1-0.1-1.4c-1.1-1-1.9-2.1-2.1-3.4
		c-0.1-0.4-0.5-0.8-1-0.8c-0.4,0-2-1.1-2-2.2c0-0.5,0.1-0.9,0.2-1.2c0.2,0.2,0.5,0.3,0.8,0.3c0.6,0,1-0.4,1-1v-1
		c0-0.6,0.1-1.3,0.3-1.9c1.4-0.5,2.5,0.3,3.7-3.2c1.7,5.2,6.3,2.2,9.4,2.1c0.4,0.9,0.6,1.9,0.6,3.1v1c0,0.6,0.4,1,1,1v2.5
		c-0.4,0.3-0.8,0.5-1,0.5c-0.5,0-0.9,0.3-1,0.8c-0.2,0.9-0.6,1.7-1.2,2.5c-0.3,0.4-0.3,1.1,0.1,1.4c0.4,0.4,1.1,0.3,1.4-0.1
		c0.7-0.8,1.1-1.7,1.4-2.7c0.5-0.2,1-0.5,1.5-0.9H33c-0.5,2.8-2.1,4.1-2.4,4.3c-0.3,0.1-1.8,0.7-4.8,0.8c-0.2-1.1-1.4-2-2.8-2
		c-1.6,0-2.8,1-2.8,2.3s1.3,2.3,2.8,2.3c1,0,1.8-0.4,2.3-1c4.2-0.2,5.9-1,6.1-1.1c0.1-0.1,2.8-1.9,3.3-6.2c0.7-0.5,1.2-1.4,1.2-2.4
		v-2C35.9,22,34.7,20.7,33,20.7z"/>
</g>
</svg>
